<svg width="19" height="18" viewBox="0 0 19 18" fill="none" xmlns="http://www.w3.org/2000/svg">
<path d="M16.8424 5.95547C16.7381 5.85047 16.6139 5.76721 16.4772 5.71048C16.3404 5.65376 16.1938 5.62471 16.0458 5.625H13.7958V5.0625C13.7958 4.01821 13.3809 3.01669 12.6425 2.27827C11.9041 1.53984 10.9026 1.125 9.85828 1.125C8.81399 1.125 7.81247 1.53984 7.07404 2.27827C6.33562 3.01669 5.92078 4.01821 5.92078 5.0625V5.625H3.67078C3.37241 5.625 3.08626 5.74353 2.87528 5.95451C2.6643 6.16548 2.54578 6.45163 2.54578 6.75V14.3438C2.54578 15.7148 3.70593 16.875 5.07703 16.875H14.6395C15.3027 16.8752 15.9397 16.6159 16.4142 16.1525C16.653 15.9247 16.8432 15.6509 16.9732 15.3476C17.1032 15.0442 17.1704 14.7177 17.1708 14.3877V6.75C17.1712 6.60244 17.1424 6.45626 17.0861 6.31989C17.0297 6.18352 16.9469 6.05966 16.8424 5.95547V5.95547ZM12.1083 11.8125H10.4208V13.5C10.4208 13.6492 10.3615 13.7923 10.256 13.8977C10.1505 14.0032 10.0075 14.0625 9.85828 14.0625C9.70909 14.0625 9.56602 14.0032 9.46053 13.8977C9.35504 13.7923 9.29578 13.6492 9.29578 13.5V11.8125H7.60828C7.45909 11.8125 7.31602 11.7532 7.21053 11.6477C7.10504 11.5423 7.04578 11.3992 7.04578 11.25C7.04578 11.1008 7.10504 10.9577 7.21053 10.8523C7.31602 10.7468 7.45909 10.6875 7.60828 10.6875H9.29578V9C9.29578 8.85082 9.35504 8.70774 9.46053 8.60225C9.56602 8.49676 9.70909 8.4375 9.85828 8.4375C10.0075 8.4375 10.1505 8.49676 10.256 8.60225C10.3615 8.70774 10.4208 8.85082 10.4208 9V10.6875H12.1083C12.2575 10.6875 12.4005 10.7468 12.506 10.8523C12.6115 10.9577 12.6708 11.1008 12.6708 11.25C12.6708 11.3992 12.6115 11.5423 12.506 11.6477C12.4005 11.7532 12.2575 11.8125 12.1083 11.8125ZM12.6708 5.625H7.04578V5.0625C7.04578 4.31658 7.34209 3.60121 7.86954 3.07376C8.39698 2.54632 9.11235 2.25 9.85828 2.25C10.6042 2.25 11.3196 2.54632 11.847 3.07376C12.3745 3.60121 12.6708 4.31658 12.6708 5.0625V5.625Z" fill="white"/>
</svg>
